<svg width="374" height="373" viewBox="0 0 374 373" fill="none" xmlns="http://www.w3.org/2000/svg">
<path fill-rule="evenodd" clip-rule="evenodd" d="M165.498 1.12799C119.859 6.25899 76.3348 28.463 47.4428 61.354C-3.8382 119.734 -14.4062 199.723 19.9398 269.525C30.9968 291.995 45.1748 310.501 63.4248 326.284C82.4118 342.706 104.504 355.433 127.05 362.939C200.571 387.416 277.099 366.534 328.294 308.025C352.067 280.856 367.965 242.893 372.476 202.525C379.816 136.838 347.57 69.139 290.998 31.467C254.774 7.34499 208.881 -3.75001 165.498 1.12799ZM209.326 16.128C234.425 18.983 260.336 28.474 281.998 42.746C319.902 67.72 345.884 105.801 355.534 150.525C358.604 164.753 359.351 193.204 357.071 209.027C355.666 218.778 350.304 241.911 348.936 244.125C348.703 244.503 344.571 243.483 339.755 241.86C330.993 238.906 310.749 233.8 302.748 232.526L298.498 231.849V184.476V137.102L294.653 136.067C291.463 135.208 263.279 128.348 239.262 122.585L233.527 121.209L233.262 151.826L232.998 182.444L226.998 183.691C223.698 184.377 220.664 184.957 220.256 184.981C219.848 185.005 219.398 157.977 219.256 124.918L218.998 64.811L199.227 53.876L179.457 42.942L158.49 54.672L137.522 66.401L137.26 102.767L136.998 139.134L124.741 129.963C116.072 123.477 112.12 121.072 111.241 121.749C110.557 122.275 102.235 128.683 92.7478 135.99L75.4978 149.274V190.649C75.4978 229.611 75.3938 232.025 73.7228 232.025C70.5088 232.025 47.2058 238.004 36.1318 241.67C27.7838 244.434 25.0858 244.976 24.4868 244.007C23.2388 241.988 18.7188 224.359 16.7988 214.025C14.0778 199.372 14.3818 167.102 17.3738 153.025C27.3888 105.912 53.6888 67.063 92.8508 41.536C126.183 19.809 165.77 11.173 209.326 16.128ZM193.248 70.433L204.498 77.153V151.205V225.258L202.248 224.655C201.011 224.324 195.61 224.046 190.248 224.039L180.498 224.025V143.466C180.498 99.159 180.835 63.089 181.248 63.311C181.661 63.533 187.061 66.738 193.248 70.433ZM267.748 145.129L284.498 149.258V189.288V229.318L276.748 228.662C272.485 228.301 264.62 227.718 259.269 227.366L249.539 226.727L249.269 183.876C249.091 155.8 249.343 141.02 249.998 141.012C250.548 141.005 258.536 142.858 267.748 145.129ZM127.533 152.552L141.498 163.078V193.89V224.701L127.411 225.613C119.663 226.115 113.138 226.337 112.911 226.108C112.292 225.484 112.413 142.025 113.033 142.025C113.328 142.025 119.853 146.762 127.533 152.552ZM240.998 241.486C276.696 244.389 300.529 247.967 324.383 254.003C348.891 260.205 349.406 262.056 325.801 259.097C297.89 255.599 280.741 254.656 245.998 254.711C189.116 254.8 161.467 258.947 136.684 271.107C124.133 277.266 115.016 285.544 110.746 294.659C108.387 299.695 107.998 301.798 107.998 309.525C107.998 317.569 108.337 319.24 111.186 325.255C114.618 332.5 118.79 338.883 122.965 343.275C124.441 344.828 125.017 346.021 124.288 346.016C121.446 345.996 100.356 334.904 90.1818 328.079C77.3368 319.462 57.5768 300.799 48.9388 289.126C42.4788 280.396 32.4978 264.202 32.4978 262.451C32.4978 259.806 72.7088 249.592 96.9978 246.068C109.008 244.325 142.45 240.944 160.498 239.648C171.818 238.835 222.683 239.996 240.998 241.486ZM178.702 272.043C169.002 276.898 161.427 283.475 158.448 289.628C155.442 295.837 156.043 305.866 159.805 312.285C168.251 326.697 187.487 342.197 209.694 352.483L216.959 355.848L212.979 356.686C210.789 357.148 198.873 357.525 186.498 357.525H163.998L159.349 354.792C152.869 350.982 139.238 337.921 133.821 330.329C114.011 302.567 128.832 282.714 179.498 269.143C186.738 267.204 186.478 268.151 178.702 272.043ZM296.498 272.053C310.032 272.994 322.657 274.349 330.219 275.673C333.394 276.229 333.419 276.277 331.989 279.043C326.437 289.779 306.266 311.431 290.914 323.134C280.339 331.195 263.08 341.275 252.722 345.439L245.473 348.353L235.736 344.535C206.736 333.163 182.529 316.125 176.501 302.842C173.867 297.039 173.989 295.674 177.496 291.68C190.268 277.133 243.44 268.364 296.498 272.053Z" fill="#16355C"/>
</svg>
